/* XPM */
static const char *crosshair0101765052958[] = {
/* columns rows colors chars-per-pixel */
"72 72 8 1 ",
"  c gray40",
". c #9B9B9B",
"X c gray81",
"o c #E4E4E4",
"O c #EEEEEE",
"+ c #F6F6F6",
"@ c white",
"# c magenta",
/* pixels */
"########################################################################",
"########################################################################",
"########################################################################",
"########################################################################",
"##################################@@@@##################################",
"##################################@@@@##################################",
"##################################@@@@##################################",
"##################################@@@@##################################",
"##################################@@@@##################################",
"##################################@@@@##################################",
"##################################@@@@##################################",
"##################################@@@@##################################",
"##################################@@@@##################################",
"##################################@@@@##################################",
"##################################@@@@##################################",
"##################################@@@@##################################",
"##################################@@@@##################################",
"##################################@@@@##################################",
"##################################@@@@##################################",
"##################################@@@@##################################",
"########################################################################",
"########################################################################",
"########################################################################",
"########################################################################",
"########################################################################",
"########################################################################",
"########################################################################",
"########################################################################",
"########################################################################",
"########################################################################",
"########################################################################",
"########################################################################",
"########################################################################",
"########################################################################",
"####@@@@@@@@@@@@@@@@############## XX ##############@@@@@@@@@@@@@@@@####",
"####@@@@@@@@@@@@@@@@##############o@@o##############@@@@@@@@@@@@@@@@####",
"####@@@@@@@@@@@@@@@@##############O@@O##############@@@@@@@@@@@@@@@@####",
"####@@@@@@@@@@@@@@@@##############.++.##############@@@@@@@@@@@@@@@@####",
"########################################################################",
"########################################################################",
"########################################################################",
"########################################################################",
"########################################################################",
"########################################################################",
"########################################################################",
"########################################################################",
"########################################################################",
"########################################################################",
"########################################################################",
"########################################################################",
"########################################################################",
"########################################################################",
"##################################@@@@##################################",
"##################################@@@@##################################",
"##################################@@@@##################################",
"##################################@@@@##################################",
"##################################@@@@##################################",
"##################################@@@@##################################",
"##################################@@@@##################################",
"##################################@@@@##################################",
"##################################@@@@##################################",
"##################################@@@@##################################",
"##################################@@@@##################################",
"##################################@@@@##################################",
"##################################@@@@##################################",
"##################################@@@@##################################",
"##################################@@@@##################################",
"##################################@@@@##################################",
"########################################################################",
"########################################################################",
"########################################################################",
"########################################################################"
};
