/* XPM */
static char *_9030a3a54ae450af0aa376469c8dddeDDxXLr2b5rz07yMc[] = {
/* columns rows colors chars-per-pixel */
"260 36 2 1 ",
"  c black",
". c magenta",
/* pixels */
"....................................................................................................................................................................................................................................................................",
"....................................................................................................................................................................................................................................................................",
"..      ..        ....      ..        ..                    ..      ..  ......            ........    ......    ........  ......    ......  ..      ..        ....      ....      ....      ..            ......    ......    ......    ......    ......            ",
"..      ..        ....      ..        ..                    ..      ..  ......            ........    ......    ........  ......    ......  ..      ..        ....      ....      ....      ..            ......    ......    ......    ......    ......            ",
"  ......    ......    ......    ......    ........  ........  ......    ......  ....  ............    ....  ..  ........    ..      ......    ......    ......    ......    ......    ......  ....  ....  ......    ......    ......    ......    ......  ........  ",
"  ......    ......    ......    ......    ........  ........  ......    ......  ....  ............    ....  ..  ........    ..      ......    ......    ......    ......    ......    ......  ....  ....  ......    ......    ......    ......    ......  ........  ",
"  ......    ......    ........  ......    ........  ........  ........  ......  ....  ............    ..  ....  ........  ..  ..      ....    ......    ......    ......    ......    ............  ....  ......    ......    ......  ..  ..  ....  ..  ........  ..",
"  ......    ......    ........  ......    ........  ........  ........  ......  ....  ............    ..  ....  ........  ..  ..      ....    ......    ......    ......    ......    ............  ....  ......    ......    ......  ..  ..  ....  ..  ........  ..",
"  ......          ..  ........  ......          ..        ..  ..                ....  ............      ......  ........  ......    ..  ..    ......          ..  ......          ....      ......  ....  ......    ......    ......  ....  ........  ........  ....",
"  ......          ..  ........  ......          ..        ..  ..                ....  ............      ......  ........  ......    ..  ..    ......          ..  ......          ....      ......  ....  ......    ......    ......  ....  ........  ........  ....",
"            ......    ........  ......    ........  ........  ......    ......  ....  ....  ......    ..  ....  ........  ......    ....      ......    ........  ......    ......  ........  ....  ....  ......  ..  ..  ..  ..  ..  ..  ..  ......  ......  ......",
"            ......    ........  ......    ........  ........  ......    ......  ....  ....  ......    ..  ....  ........  ......    ....      ......    ........  ......    ......  ........  ....  ....  ......  ..  ..  ..  ..  ..  ..  ..  ......  ......  ......",
"  ......    ......    ......    ......    ........  ........  ......    ......  ....  ....  ......    ....  ..  ........  ......    ......    ......    ........  ......    ......    ......  ....  ....  ......  ..  ..  ..    ..      ......  ....  ....  ........",
"  ......    ......    ......    ......    ........  ........  ......    ......  ....  ....  ......    ....  ..  ........  ......    ......    ......    ........  ......    ......    ......  ....  ....  ......  ..  ..  ..    ..      ......  ....  ....  ........",
"  ......          ....      ..        ..            ..........      ..  ......                    ..  ......              ......    ......  ..      ..  ..........      ..  ......  ..      ......  ......      ......  ....  ......    ......  ....  ....          ",
"  ......          ....      ..        ..            ..........      ..  ......                    ..  ......              ......    ......  ..      ..  ..........      ..  ......  ..      ......  ......      ......  ....  ......    ......  ....  ....          ",
"......................................................................................................................................................................      ........................................................................................",
"......................................................................................................................................................................      ........................................................................................",
"..........  ..........................  ..............    ............  ............  ............    ........    ..................................................................................................................................................",
"..........  ..........................  ..............    ............  ............  ............    ........    ..................................................................................................................................................",
"..........  ..........................  ............  ....  ..........  ............................  ..........  ..............................................................................  ..................................................................",
"..........  ..........................  ............  ....  ..........  ............................  ..........  ..............................................................................  ..................................................................",
"..                ....      ....        ..      ....  ........                ....    ..........      ......  ..  ......        ..        ....      ..        ....          ..    ....                ..  ......    ......    ......    ......    ......            ",
"..                ....      ....        ..      ....  ........                ....    ..........      ......  ..  ......        ..        ....      ..        ....          ..    ....                ..  ......    ......    ......    ......    ......            ",
"  ......    ......    ......    ......    ......          ..  ......    ......  ....  ............    ....  ....  ......  ..  ..    ......    ......    ......    ......      ....    ..........  ......  ......    ......    ......  ..  ..  ..  ......  ......  ..",
"  ......    ......    ......    ......    ......          ..  ......    ......  ....  ............    ....  ....  ......  ..  ..    ......    ......    ......    ......      ....    ..........  ......  ......    ......    ......  ..  ..  ..  ......  ......  ..",
"  ......    ......    ........  ......            ..  ......  ......    ......  ....  ............        ......  ......  ..  ..    ......    ......    ......    ......    ..........      ....  ......  ......    ......    ..  ..  ....  ....  ......  ....  ....",
"  ......    ......    ........  ......            ..  ......  ......    ......  ....  ............        ......  ......  ..  ..    ......    ......    ......    ......    ..........      ....  ......  ......    ......    ..  ..  ....  ....  ......  ....  ....",
"  ......    ......    ......    ......    ..........  ......  ......    ......  ....  ............    ....  ....  ......  ..  ..    ......    ......    ......    ......    ................  ..  ......  ......  ..  ..  ..  ..  ..  ..  ..  ..  ......  ..  ......",
"  ......    ......    ......    ......    ..........  ......  ......    ......  ....  ............    ....  ....  ......  ..  ..    ......    ......    ......    ......    ................  ..  ......  ......  ..  ..  ..  ..  ..  ..  ..  ..  ......  ..  ......",
"..                ....      ....        ..      ....  ........          ......            ........    ......  ....        ..  ..    ......  ..      ..        ....          ........        ......      ..        ....  ......  ..  ..  ......  ..                  ",
"..                ....      ....        ..      ....  ........          ......            ........    ......  ....        ..  ..    ......  ..      ..        ....          ........        ......      ..        ....  ......  ..  ..  ......  ..                  ",
"....................................................................  ....................  ......  ..................................................  ................  ..............................................................................  ..........",
"....................................................................  ....................  ......  ..................................................  ................  ..............................................................................  ..........",
"..............................................................      ........................      ....................................................  ................  ........................................................................      ............",
"..............................................................      ........................      ....................................................  ................  ........................................................................      ............"
};
