/* XPM */
static char *_715d8a2393640d7f6d30381046403a0WLlEj0ZiCkyxSYZK[] = {
/* columns rows colors chars-per-pixel */
"32 32 206 2 ",
"   c #020101",
".  c #0A0201",
"X  c #060806",
"o  c #0B0907",
"O  c #040309",
"+  c #09070B",
"@  c #07090E",
"#  c #0B0B0C",
"$  c #110201",
"%  c #180400",
"&  c #120A04",
"*  c #1E0900",
"=  c #120D0B",
"-  c #190F09",
";  c #0E1107",
":  c #14120D",
">  c #1F1106",
",  c #0C0E13",
"<  c #180910",
"1  c #110E11",
"2  c #0F1112",
"3  c #141314",
"4  c #1C1514",
"5  c #161814",
"6  c #1D1C1C",
"7  c #1D1914",
"8  c #220502",
"9  c #2C0503",
"0  c #240C0C",
"q  c #320000",
"w  c #340A04",
"e  c #26150B",
"r  c #281508",
"t  c #3E130F",
"y  c #201814",
"u  c #201D1E",
"i  c #261A15",
"p  c #331917",
"a  c #372008",
"s  c #2C2319",
"d  c #30261D",
"f  c #141B23",
"g  c #1C1D22",
"h  c #141F2B",
"j  c #19222D",
"k  c #1F2B37",
"l  c #252324",
"z  c #292421",
"x  c #2C2C2A",
"c  c #2A2A29",
"v  c #3C2D24",
"b  c #302728",
"n  c #342D2C",
"m  c #302522",
"M  c #3B322D",
"N  c #35312E",
"B  c #262B33",
"V  c #2B353D",
"C  c #363534",
"Z  c #393735",
"A  c #3C3D3A",
"S  c #3B3937",
"D  c #470901",
"F  c #48180F",
"G  c #41170F",
"H  c #571D0A",
"J  c #421919",
"K  c #442D15",
"L  c #5B2519",
"P  c #4B341C",
"I  c #682D1C",
"U  c #782D18",
"Y  c #6A351C",
"T  c #7A3314",
"R  c #7E351A",
"E  c #773E18",
"W  c #793A19",
"Q  c #5A2E27",
"!  c #4B3025",
"~  c #533C2F",
"^  c #423C3A",
"/  c #462925",
"(  c #772F27",
")  c #7B2F24",
"_  c #673629",
"`  c #7D3223",
"'  c #7C3C2C",
"]  c #46453D",
"[  c #4F4635",
"{  c #5C4C3D",
"}  c #574537",
"|  c #7D4724",
" . c #794239",
".. c #685336",
"X. c #3E3D40",
"o. c #433E40",
"O. c #474449",
"+. c #4B4645",
"@. c #534D4D",
"#. c #564B45",
"$. c #52504E",
"%. c #595553",
"&. c #5D5B58",
"*. c #545456",
"=. c #655045",
"-. c #775947",
";. c #605650",
":. c #655D5A",
">. c #685F5E",
",. c #645956",
"<. c #6F605E",
"1. c #6B6157",
"2. c #716058",
"3. c #706B5F",
"4. c #5F5F61",
"5. c #636362",
"6. c #64666B",
"7. c #6B6764",
"8. c #736E6C",
"9. c #786D6A",
"0. c #7B726C",
"q. c #7A7675",
"w. c #797777",
"e. c #84341D",
"r. c #85381D",
"t. c #843421",
"y. c #893625",
"u. c #863C25",
"i. c #8A3A24",
"p. c #843C2B",
"a. c #903824",
"s. c #863C33",
"d. c #814627",
"f. c #8E522D",
"g. c #824C37",
"h. c #864843",
"j. c #975844",
"k. c #9B6D48",
"l. c #82685C",
"z. c #966657",
"x. c #84755F",
"c. c #9A785D",
"v. c #AC6B48",
"b. c #A47150",
"n. c #B77857",
"m. c #8F796A",
"M. c #847D7C",
"N. c #857A72",
"B. c #A68566",
"V. c #BB9377",
"C. c #C18761",
"Z. c #C2997C",
"A. c #7E7D82",
"S. c #8C8887",
"D. c #888587",
"F. c #9C8C86",
"G. c #958D8C",
"H. c #988B86",
"J. c #9B918E",
"K. c #9B9B98",
"L. c #A59489",
"P. c #A39895",
"I. c #A69B98",
"U. c #ADA29A",
"Y. c #B5A49C",
"T. c #B6A79C",
"R. c #ABABA9",
"E. c #A2A2A2",
"W. c #B3A5A3",
"Q. c #B7ABA4",
"!. c #BCABA3",
"~. c #B3AFAE",
"^. c #BEB0A7",
"/. c #BEB2AD",
"(. c #B3B1AF",
"). c #AFAEB1",
"_. c #B9B7B6",
"`. c #CBAC8B",
"'. c #D2A384",
"]. c #D8A888",
"[. c #DAB58F",
"{. c #C1AA9F",
"}. c #DCBA96",
"|. c #C2ACA3",
" X c #C7AFA8",
".X c #C9AEAA",
"XX c #C6B1A5",
"oX c #C4B2AB",
"OX c #C9B3AC",
"+X c #CDB8AA",
"@X c #CAB0A7",
"#X c #D0BCAE",
"$X c #C3B3B1",
"%X c #C9B6B4",
"&X c #CBBBB4",
"*X c #C4BCBA",
"=X c #C8BDB9",
"-X c #F0C097",
";X c #CDC1BB",
":X c #C1C2BF",
">X c #D2C3BC",
",X c #FCCEA7",
"<X c #CBC4C2",
"1X c #CDCCC8",
"2X c #DFCBC4",
"3X c #DAD5CB",
/* pixels */
"    X X                                                     X   ",
"        X     X                               o       X     X   ",
"    X X X     X                           3 $.= X X   6 S     o ",
"  X 3 6   , ,                           4 I.%.      5 w.=       ",
"      *.c   c #       X           o . l _.M.  X   : K.S X   . . ",
"    X 6 E.C   5.l                   Z *Xw.  .   x R.@.  +.3     ",
"        C _.X.3 D.g       X X     C 1X8.    n S.:XA # R.&.      ",
"      #   C _.4.3 w.O.O u X X u   K.&.  %.J.<XR.3 c (.5.  o     ",
"            6 ).A.@ S.O.C u   w.C = = G.<X~.%.X %.(.S           ",
"          X   # 6.6., c + =   D.8.  + @.@.o n S.w.3             ",
"      + =   + X   ,   3 b & $ $XP.. l   O 8.8.z                 ",
"  .   7.N . +     @ l u   p F.%XY.4 l B @ @ =   .               ",
"&   = _.:.      . 3 . & <.OX.X|.2X,.+ V f   . . .               ",
".   - /.;X#..   o z >.P.>XOX|.@X+XS.@ k j @ M e .               ",
".   i oXoX;XI.H.I./.>X>X|.|.{.{.XXQ., h k @ d P.y o . +         ",
". . v &X^.oXoX%XOX&XJ.N.oXY.|.T.+X!.3 f V g % l.L.$             ",
"    #.>XXXY.@X@X&XI.. y %XOX|.{.#XU.o O f u 8 _ `...            ",
". . ;.;X!.$ =.@XoXF.d G.<XW.oX X&X0.  2   . 9 _ k.`..           ",
". . +.=X>X2.v oX|.oX$X<X@.: 1.>XQ.7 X c 5 . F ' | }.s           ",
"    n ;XH.Y.>X!.|.XX=X@.    3.3XZ # 3 x : * _ ' E [.[           ",
"  + . I.m $ J.&X|.%XP..   N T.]   *.g 3 . 8  .' W ].{           ",
"O   O o.M.  . L.oX!.U.^ :.9.e . 1 O.< $ / w D p.T '.{           ",
"    + + +.0.M N.%XXX;XW.+.. $ $ . 0 J q L ' U t.T ].~           ",
"          6 M.*X/.;X0.$ 0 p Q Q 9 G h.( ) p.y.i.r.'.r           ",
"            . x <XN.. > t h.s.s.I H p.y.t.e.i.T b.c..           ",
"                ] : ; L.L ` t.i.u.u.e.i.e.e.T | V.r .           ",
"                      x.'.f.v.T R R i.e.a.T d.Z.K . .           ",
"                      . B.,X-XC.R i.i.t.` j.V.P .               ",
"                O O     . -.}.,Xn.R e.p.z.-.r .                 ",
"                O O     . . a B.'.Y g.z.! . .                   ",
"                        . . . . } m.[ & .                       ",
"                              .   d           X               O "
};
